<svg width="32" height="32" viewBox="0 0 32 32" fill="none" xmlns="http://www.w3.org/2000/svg">
<path fill-rule="evenodd" clip-rule="evenodd" d="M25.5373 30.4871C26.9041 31.8539 29.1202 31.8539 30.4871 30.4871C31.8539 29.1203 31.8539 26.9042 30.4871 25.5373L20.9411 15.9914L30.4871 6.44545C31.8539 5.07863 31.8539 2.86253 30.4871 1.49571C29.1202 0.12888 26.9041 0.12888 25.5373 1.49571L15.9914 11.0416L6.44544 1.49571C5.0786 0.128869 2.86251 0.12888 1.49569 1.49571C0.128863 2.86253 0.128852 5.07862 1.49569 6.44545L11.0416 15.9914L1.49569 25.5373C0.128863 26.9042 0.128863 29.1203 1.49569 30.4871C2.86251 31.8539 5.07861 31.8539 6.44544 30.4871L15.9914 20.9411L25.5373 30.4871Z" fill="#946695"/>
</svg>
