<svg width="39" height="39" viewBox="0 0 39 39" fill="none" xmlns="http://www.w3.org/2000/svg">
<path d="M4.24419 33.9504L6.48257 25.5845L12.6085 31.7059L4.24419 33.9504Z" fill="#946695"/>
<path d="M4.24419 33.9504L5.13954 30.604L7.58993 33.0526L4.24419 33.9504Z" fill="#272327"/>
<path fill-rule="evenodd" clip-rule="evenodd" d="M24.0931 5.59855L7.06848 22.6357C5.50698 24.1983 5.50788 26.731 7.07055 28.2925L9.90001 31.1199C11.4627 32.6815 13.9954 32.6805 15.5569 31.1179L32.5815 14.0807C32.315 13.5232 32.4125 12.8351 32.8741 12.3732C33.3357 11.9112 34.0238 11.8132 34.5814 12.0793L35.3486 11.3116C36.9101 9.74897 36.9092 7.21629 35.3465 5.65476L32.5171 2.82737C30.9544 1.26585 28.4217 1.2668 26.8602 2.82944L26.0931 3.59717C26.3596 4.15464 26.2621 4.84274 25.8005 5.30471C25.3388 5.76667 24.6508 5.86469 24.0931 5.59855ZM15.9085 25.8144C15.3225 25.2289 15.3222 24.2791 15.9077 23.6931L26.5104 13.0826C27.0959 12.4967 28.0457 12.4963 28.6317 13.0818C29.2177 13.6674 29.218 14.6172 28.6325 15.2032L18.0298 25.8137C17.4443 26.3996 16.4945 26.4 15.9085 25.8144ZM12.3709 20.1589C11.7853 20.7448 11.7856 21.6946 12.3717 22.2802C12.9577 22.8658 13.9074 22.8654 14.493 22.2794L25.0957 11.6689C25.6812 11.083 25.6809 10.1332 25.0949 9.54761C24.5089 8.96203 23.5591 8.96242 22.9736 9.54838L12.3709 20.1589Z" fill="#946695"/>
</svg>
